<svg id="Capa_1" enable-background="new 0 0 511.951 511.951" height="512" viewBox="0 0 511.951 511.951" width="512" xmlns="http://www.w3.org/2000/svg"> <g><path d="m88.358 183.819h-21.678v-93.21c0-8.284-6.716-15-15-15s-15 6.716-15 15v93.21h-21.68c-8.284 0-15 6.716-15 15v112.478c0 8.284 6.716 15 15 15h21.68v21.682c0 8.284 6.716 15 15 15s15-6.716 15-15v-21.682h21.679c8.284 0 15-6.716 15-15v-112.478c-.001-8.284-6.716-15-15.001-15zm-15 112.478h-43.358v-82.478h43.358z"/><path d="m224.555 295.082h-21.679v-21.682c0-8.284-6.716-15-15-15s-15 6.716-15 15v21.682h-21.68c-8.284 0-15 6.716-15 15v73.356c0 8.284 6.716 15 15 15h21.68v22.904c0 8.284 6.716 15 15 15s15-6.716 15-15v-22.904h21.679c8.284 0 15-6.716 15-15v-73.356c0-8.284-6.716-15-15-15zm-15 73.357h-43.358v-43.356h43.358z"/><path d="m360.753 221.719h-21.679v-21.681c0-8.284-6.716-15-15-15s-15 6.716-15 15v21.681h-21.68c-8.284 0-15 6.716-15 15v73.356c0 8.284 6.716 15 15 15h21.679v96.268c0 8.284 6.716 15 15 15s15-6.716 15-15v-96.268h21.679c8.284 0 15-6.716 15-15v-73.356c.001-8.284-6.715-15-14.999-15zm-15 73.356h-43.358v-43.356h43.358z"/><path d="m496.951 112.29h-21.68v-21.682c0-8.284-6.716-15-15-15s-15 6.716-15 15v21.682h-21.679c-8.284 0-15 6.716-15 15v109.429c0 8.284 6.716 15 15 15h21.679v59.578c0 8.284 6.716 15 15 15s15-6.716 15-15v-59.578h21.68c8.284 0 15-6.716 15-15v-109.429c0-8.284-6.716-15-15-15zm-15 109.429h-43.358v-79.429h43.358z"/></g> </svg>